<svg width="10" height="10" viewBox="0 0 10 10" fill="none" xmlns="http://www.w3.org/2000/svg">
<path d="M5 10C7.76142 10 10 7.76142 10 5C10 2.23858 7.76142 0 5 0C2.23858 0 0 2.23858 0 5C0 7.76142 2.23858 10 5 10Z" fill="#FF575F"/>
<path d="M4.79581 6.18095L4.62819 4.04761V2.5238H5.61867V4.04761L5.44343 6.18095H4.79581ZM5.52724 7.78095C5.41548 7.89268 5.28088 7.94857 5.12343 7.94857C4.96595 7.94857 4.83136 7.89268 4.71962 7.78095C4.60786 7.66921 4.552 7.53459 4.552 7.37714C4.552 7.21968 4.60534 7.08507 4.712 6.97333C4.82374 6.86159 4.96088 6.80571 5.12343 6.80571C5.28088 6.80571 5.41548 6.86159 5.52724 6.97333C5.63898 7.08507 5.69486 7.21968 5.69486 7.37714C5.69486 7.53459 5.63898 7.66921 5.52724 7.78095Z" fill="white"/>
</svg>
