<svg width="24" height="10" viewBox="0 0 24 10" fill="none" xmlns="http://www.w3.org/2000/svg">
<path d="M3 1.30005C3.09926 1.47726 3.20074 1.65052 3.30432 1.81985M21 1.36419C20.9422 1.46558 20.8837 1.56567 20.8245 1.66446M3.30432 1.81985L1.5 3M3.30432 1.81985C4.25932 3.38095 5.39373 4.60703 6.63113 5.5C6.98759 5.75724 7.35261 5.98684 7.72434 6.18885M20.8245 1.66446L23 3M20.8245 1.66446C19.7036 3.53413 18.3234 4.94077 16.8133 5.88112C16.4128 6.13053 16.0032 6.34713 15.5868 6.53087M7.72434 6.18885L6.5 9M7.72434 6.18885C10.2265 7.54854 13.033 7.65787 15.5868 6.53087M15.5868 6.53087L17 9" stroke="#BABABA" stroke-width="2" stroke-linecap="round" stroke-linejoin="round"/>
</svg>
